<svg width="25" height="25" viewBox="0 0 25 25" fill="none" xmlns="http://www.w3.org/2000/svg">
<g clip-path="url(#clip0_1_13)">
<path d="M16.6036 0.962321C16.6036 0.431315 17.1285 0 17.7775 0C18.4265 0 18.9514 0.431315 18.9514 0.962321V5.17782C18.9514 5.70882 18.4265 6.14014 17.7775 6.14014C17.1285 6.14014 16.6036 5.70882 16.6036 5.17782V0.962321ZM13.4501 21.1202C13.3809 21.1202 13.326 20.8293 13.326 20.4692C13.326 20.1091 13.3809 19.8181 13.4501 19.8181H16.6626C16.7318 19.8181 16.7867 20.1091 16.7867 20.4692C16.7867 20.8293 16.7318 21.1202 16.6626 21.1202H13.4501ZM3.22469 13.6495C3.15552 13.6495 3.10059 13.3586 3.10059 12.9985C3.10059 12.6383 3.15552 12.3474 3.22469 12.3474H6.43717C6.50635 12.3474 6.56128 12.6383 6.56128 12.9985C6.56128 13.3586 6.50635 13.6495 6.43717 13.6495H3.22469ZM8.3374 13.6495C8.26823 13.6495 8.2133 13.3586 8.2133 12.9985C8.2133 12.6383 8.26823 12.3474 8.3374 12.3474H11.5499C11.6191 12.3474 11.674 12.6383 11.674 12.9985C11.674 13.3586 11.6191 13.6495 11.5499 13.6495H8.3374ZM13.4501 13.6495C13.3809 13.6495 13.326 13.3586 13.326 12.9985C13.326 12.6383 13.3809 12.3474 13.4501 12.3474H16.6626C16.7318 12.3474 16.7867 12.6383 16.7867 12.9985C16.7867 13.3586 16.7318 13.6495 16.6626 13.6495H13.4501ZM18.5649 13.6495C18.4957 13.6495 18.4408 13.3586 18.4408 12.9985C18.4408 12.6383 18.4957 12.3474 18.5649 12.3474H21.7773C21.8465 12.3474 21.9014 12.6383 21.9014 12.9985C21.9014 13.3586 21.8465 13.6495 21.7773 13.6495H18.5649ZM3.22469 17.3848C3.15552 17.3848 3.10059 17.0939 3.10059 16.7338C3.10059 16.3737 3.15552 16.0828 3.22469 16.0828H6.43717C6.50635 16.0828 6.56128 16.3737 6.56128 16.7338C6.56128 17.0939 6.50635 17.3848 6.43717 17.3848H3.22469ZM8.3374 17.3848C8.26823 17.3848 8.2133 17.0939 8.2133 16.7338C8.2133 16.3737 8.26823 16.0828 8.3374 16.0828H11.5499C11.6191 16.0828 11.674 16.3737 11.674 16.7338C11.674 17.0939 11.6191 17.3848 11.5499 17.3848H8.3374ZM13.4501 17.3848C13.3809 17.3848 13.326 17.0939 13.326 16.7338C13.326 16.3737 13.3809 16.0828 13.4501 16.0828H16.6626C16.7318 16.0828 16.7867 16.3737 16.7867 16.7338C16.7867 17.0939 16.7318 17.3848 16.6626 17.3848H13.4501ZM18.5649 17.3848C18.4957 17.3848 18.4408 17.0939 18.4408 16.7338C18.4408 16.3737 18.4957 16.0828 18.5649 16.0828H21.7773C21.8465 16.0828 21.9014 16.3737 21.9014 16.7338C21.9014 17.0939 21.8465 17.3848 21.7773 17.3848H18.5649ZM3.22469 21.1202C3.15552 21.1202 3.10059 20.8293 3.10059 20.4692C3.10059 20.1091 3.15552 19.8181 3.22469 19.8181H6.43717C6.50635 19.8181 6.56128 20.1091 6.56128 20.4692C6.56128 20.8293 6.50635 21.1202 6.43717 21.1202H3.22469ZM8.3374 21.1202C8.26823 21.1202 8.2133 20.8293 8.2133 20.4692C8.2133 20.1091 8.26823 19.8181 8.3374 19.8181H11.5499C11.6191 19.8181 11.674 20.1091 11.674 20.4692C11.674 20.8293 11.6191 21.1202 11.5499 21.1202H8.3374ZM6.02417 0.962321C6.02417 0.431315 6.54907 0 7.19808 0C7.84709 0 8.37199 0.431315 8.37199 0.962321V5.17782C8.37199 5.70882 7.84709 6.14014 7.19808 6.14014C6.54907 6.14014 6.02417 5.70882 6.02417 5.17782V0.962321ZM1.30208 9.22038H23.6959V4.36808C23.6959 4.20532 23.6287 4.0568 23.5209 3.94694C23.4131 3.83911 23.2646 3.77197 23.0998 3.77197H20.9554C20.5953 3.77197 20.3044 3.48104 20.3044 3.12093C20.3044 2.76082 20.5953 2.46989 20.9554 2.46989H23.1018C23.6247 2.46989 24.0987 2.68351 24.4425 3.02734C24.7864 3.37118 25 3.84521 25 4.36808V9.87345V23.1038C25 23.6267 24.7864 24.1007 24.4425 24.4446C24.0987 24.7884 23.6247 25.002 23.1018 25.002H1.89819C1.37533 25.002 0.901286 24.7884 0.557454 24.4446C0.213623 24.0987 0 23.6247 0 23.1018V9.87142V4.36808C0 3.84521 0.213623 3.37118 0.557454 3.02734C0.901286 2.68351 1.37533 2.46989 1.89819 2.46989H4.19108C4.55119 2.46989 4.84212 2.76082 4.84212 3.12093C4.84212 3.48104 4.55119 3.77197 4.19108 3.77197H1.89819C1.73543 3.77197 1.58691 3.83911 1.47705 3.94694C1.36922 4.05477 1.30208 4.20329 1.30208 4.36808V9.22038ZM23.6979 10.5245H1.30208V23.1018C1.30208 23.2646 1.36922 23.4131 1.47705 23.523C1.58488 23.6308 1.7334 23.6979 1.89819 23.6979H23.1018C23.2646 23.6979 23.4131 23.6308 23.523 23.523C23.6308 23.4151 23.6979 23.2666 23.6979 23.1018V10.5245ZM10.26 3.77197C9.8999 3.77197 9.60897 3.48104 9.60897 3.12093C9.60897 2.76082 9.8999 2.46989 10.26 2.46989H14.6322C14.9923 2.46989 15.2832 2.76082 15.2832 3.12093C15.2832 3.48104 14.9923 3.77197 14.6322 3.77197H10.26Z" fill="black"/>
</g>
<defs>
<clipPath id="clip0_1_13">
<rect width="25" height="25" fill="white"/>
</clipPath>
</defs>
</svg>
